<?xml version="1.0" standalone="no"?><!DOCTYPE svg PUBLIC "-//W3C//DTD SVG 1.1//EN" "http://www.w3.org/Graphics/SVG/1.1/DTD/svg11.dtd"><svg t="1669626347737" class="icon" viewBox="0 0 1024 1024" version="1.1" xmlns="http://www.w3.org/2000/svg" p-id="19457" xmlns:xlink="http://www.w3.org/1999/xlink" width="32" height="32"><path d="M848.56 705.58v-150.1c0-5.53-4.48-10.01-10.01-10.01l-293.44-0.06V451h133.15c5.53 0 10.01-4.48 10.01-10.01V107.37c0-5.53-4.48-10.01-10.01-10.01H344.63c-5.53 0-10.01 4.48-10.01 10.01V441c0 5.53 4.48 10.01 10.01 10.01h136.48v94.41l-295.7 0.02c-5.53 0-10.01 4.48-10.01 10.01v150.14h-69.52c-5.53 0-10.01 4.48-10.01 10.01v203.04c0 5.53 4.48 10.01 10.01 10.01h203.04c5.53 0 10.01-4.48 10.01-10.01V715.58c0-5.53-4.48-10.01-10.01-10.01H239.4v-96.16h241.71v96.16h-70.24c-5.53 0-10.01 4.48-10.01 10.01v203.04c0 5.53 4.48 10.01 10.01 10.01h203.04c5.53 0 10.01-4.48 10.01-10.01V715.58c0-5.53-4.48-10.01-10.01-10.01h-68.8v-96.16h239.45v96.16h-69.52c-5.53 0-10.01 4.48-10.01 10.01v203.04c0 5.53 4.48 10.01 10.01 10.01h203.04c5.53 0 10.01-4.48 10.01-10.01V715.58c0-5.53-4.48-10.01-10.01-10.01h-69.52zM398.62 161.36h225.64V387H398.62V161.36zM254.93 864.63h-95.06v-95.06h95.06v95.06z m304.99 0h-95.06v-95.06h95.06v95.06z m304.17 0h-95.06v-95.06h95.06v95.06z" fill="#333333" p-id="19458"></path></svg>