<?xml version="1.0" standalone="no"?><!DOCTYPE svg PUBLIC "-//W3C//DTD SVG 1.1//EN" "http://www.w3.org/Graphics/SVG/1.1/DTD/svg11.dtd"><svg t="1669628856093" class="icon" viewBox="0 0 1024 1024" version="1.1" xmlns="http://www.w3.org/2000/svg" p-id="53011" xmlns:xlink="http://www.w3.org/1999/xlink" width="32" height="32"><path d="M887.36 390.336c7.296 13.12 9.472 27.264 6.592 42.432H490.56c-16.896 0-30.336 4.992-40.256 14.848-9.92 9.92-15.168 23.616-15.744 41.152v346.496l-140.032 50.752c-14.592 5.248-28.736 4.544-42.432-2.176-13.696-6.72-23.744-17.088-30.208-31.04-2.368-5.824-3.776-10.368-4.352-13.568-0.576-3.2-0.896-6.272-0.896-9.216l5.248-168c0-14.016-1.6-26.816-4.8-38.528-3.2-11.648-8.896-23.04-17.088-34.112L98.56 454.656c-8.192-11.648-11.072-25.344-8.768-41.152 2.304-15.744 9.024-27.968 20.096-36.736 2.944-2.944 5.824-5.568 8.768-7.872 2.944-2.304 5.568-3.52 7.872-3.52l162.752-50.752c11.648-2.944 22.464-8.32 32.384-16.192 9.92-7.872 17.792-17.344 23.616-28.416l100.608-140.032c9.344-11.072 20.864-17.792 34.56-20.096 13.696-2.304 26.368 0.576 38.08 8.768 2.944 0 5.824 1.152 8.768 3.52 2.944 2.368 5.824 4.992 8.768 7.872L630.592 270.08c8.768 11.072 18.368 20.544 28.864 28.416s21.568 13.248 33.28 16.192l161.856 50.752c14.528 3.456 25.472 11.776 32.768 24.896z m30.656 413.888c14.848 15.488 19.968 33.408 15.296 53.824-0.576 22.72-8 41.408-22.336 56-14.272 14.592-33.088 22.144-56.448 22.72-16.896-0.576-31.808-5.568-44.608-14.848a80.8768 80.8768 0 0 1-28.032-35.904H641.92c-5.824 14.592-15.168 26.56-28.032 35.904s-27.712 14.272-44.608 14.848c-22.72-0.576-41.408-8.192-56-22.72-14.592-14.592-22.144-33.28-22.72-56 0.576-16.896 5.568-31.808 14.848-44.608 9.344-12.8 21.312-22.144 35.904-28.032v-140.032c-14.592-5.824-26.56-15.168-35.904-28.032-9.344-12.8-14.272-27.712-14.848-44.608 1.152-23.296 9.792-42.112 25.792-56.448 16.064-14.272 35.584-21.44 58.624-21.44 23.04 0 41.728 7.168 56 21.44 14.272 14.272 21.696 33.088 22.336 56.448 0 19.264-5.12 35.584-15.296 49.024-10.24 13.44-23.744 23.04-40.704 28.864v134.72c11.648 2.944 22.144 9.216 31.488 18.816s15.744 19.968 19.264 31.04h133.888c6.4-16.896 16.768-30.336 31.04-40.256 14.272-9.92 30.208-15.168 47.68-15.744 23.36 1.28 42.432 9.6 57.344 25.024z m-66.496-57.728c-4.992-6.72-7.424-14.464-7.424-23.168v-145.28h-146.112c-8.192 0-14.848-2.496-20.096-7.424-5.248-4.928-7.872-11.84-7.872-20.544s2.624-15.616 7.872-20.544c5.248-4.928 11.968-7.424 20.096-7.424h174.144c8.192 0 14.72 2.496 19.712 7.424 4.928 4.992 7.744 11.84 8.32 20.544v179.392c-0.576 8.192-3.392 14.848-8.32 20.096-4.992 5.248-11.52 7.872-19.712 7.872-8.832-0.576-15.68-4.224-20.608-10.944z m-106.752 8.768c-4.992-4.928-7.424-11.84-7.424-20.544v-33.28h-33.28c-8.768 0-15.616-2.624-20.544-7.872-4.992-5.248-7.424-12.096-7.424-20.544s2.496-15.168 7.424-20.096c4.928-4.928 11.84-7.424 20.544-7.424h61.248c8.768 0 15.616 2.496 20.544 7.424 4.928 4.992 7.424 11.84 7.424 20.544v61.248c0 8.768-2.496 15.616-7.424 20.544-4.992 4.992-11.84 7.424-20.544 7.424s-15.616-2.496-20.544-7.424z" p-id="53012"></path></svg>