<?xml version="1.0" standalone="no"?><!DOCTYPE svg PUBLIC "-//W3C//DTD SVG 1.1//EN" "http://www.w3.org/Graphics/SVG/1.1/DTD/svg11.dtd"><svg t="1669628435475" class="icon" viewBox="0 0 1024 1024" version="1.1" xmlns="http://www.w3.org/2000/svg" p-id="41871" xmlns:xlink="http://www.w3.org/1999/xlink" width="32" height="32"><path d="M512.097792 51.2c-23.04 0-46.08 4.4032-63.5904 13.312L78.587392 252.8256c-34.8672 17.8176-34.8672 46.7456 0 64.512l369.92 188.0576c17.5104 8.96 40.5504 13.312 63.6416 13.312 23.04 0 46.0288-4.352 63.488-13.312l370.0736-188.16c35.0208-17.8176 35.0208-46.7968 0-64.6144L575.585792 64.512C558.024192 55.6032 535.035392 51.2 512.046592 51.2z m0 697.6512c-28.3648 0-56.7808-5.7344-79.36-17.3056l-362.6496-184.32a36.5568 36.5568 0 0 1-14.0288-47.616 35.328 35.328 0 0 1 45.8752-16.9984l362.496 184.3712c24.9344 12.6464 70.2464 12.6464 95.2832 0l362.496-184.32a35.2768 35.2768 0 0 1 46.9504 16.5376 36.4544 36.4544 0 0 1-15.1552 48.128l-362.5984 184.1664a176.7936 176.7936 0 0 1-79.36 17.2544v0.1024zM512.097792 972.8c-28.3648 0-56.7808-5.7856-79.36-17.3568L70.139392 771.072a36.4544 36.4544 0 0 1-15.1552-48.128 35.2768 35.2768 0 0 1 46.8992-16.5376L464.328192 890.88c24.9856 12.7488 70.2976 12.7488 95.3344 0l362.496-184.3712a35.2768 35.2768 0 0 1 46.8992 16.5376 36.4544 36.4544 0 0 1-15.104 48.0768l-362.496 184.2688c-22.5792 11.52-50.944 17.3568-79.36 17.3568V972.8z" p-id="41872"></path></svg>