<?xml version="1.0" standalone="no"?><!DOCTYPE svg PUBLIC "-//W3C//DTD SVG 1.1//EN" "http://www.w3.org/Graphics/SVG/1.1/DTD/svg11.dtd"><svg t="1669628258695" class="icon" viewBox="0 0 1024 1024" version="1.1" xmlns="http://www.w3.org/2000/svg" p-id="25981" xmlns:xlink="http://www.w3.org/1999/xlink" width="32" height="32"><path d="M608 352h224v64H608zM608 480h224v64H608zM608 608h224v64H608z" p-id="25982"></path><path d="M896 192H128a64.19 64.19 0 0 0-64 64v512a64.19 64.19 0 0 0 64 64h768a64.19 64.19 0 0 0 64-64V256a64.19 64.19 0 0 0-64-64zM304 597.33L260 640 128 512l44-42.67 88 85.33L436 384l44 42.67zM896 768H544V256h352z" p-id="25983"></path></svg>