<?xml version="1.0" standalone="no"?><!DOCTYPE svg PUBLIC "-//W3C//DTD SVG 1.1//EN" "http://www.w3.org/Graphics/SVG/1.1/DTD/svg11.dtd"><svg t="1669628766170" class="icon" viewBox="0 0 1024 1024" version="1.1" xmlns="http://www.w3.org/2000/svg" p-id="52509" xmlns:xlink="http://www.w3.org/1999/xlink" width="32" height="32"><path d="M879.542857 100.571429H144.457143c-20.114286 0-36.571429 16.457143-36.571429 36.571428v808.228572c0 10.971429 5.485714 21.942857 12.8 29.257142 7.314286 5.485714 14.628571 9.142857 23.771429 9.142858h7.314286l360.228571-73.142858 360.228571 71.314286c10.971429 1.828571 21.942857 0 31.085715-7.314286s12.8-18.285714 12.8-29.257142V137.142857c0-20.114286-16.457143-36.571429-36.571429-36.571428z m-36.571428 800.914285l-323.657143-64h-14.628572L181.028571 901.485714V173.714286h661.942858v727.771428z" fill="#4C4C4C" p-id="52510"></path><path d="M409.6 671.085714l100.571429-96.914285 96.914285 102.4 53.028572-51.2-96.914286-100.571429 102.4-96.914286-51.2-53.028571-100.571429 96.914286-96.914285-102.4-53.028572 51.2 96.914286 100.571428-102.4 96.914286z" fill="#4C4C4C" p-id="52511"></path></svg>