<?xml version="1.0" encoding="utf-8"?><svg version="1.1" id="图层_1" xmlns="http://www.w3.org/2000/svg" xmlns:xlink="http://www.w3.org/1999/xlink" x="0px" y="0px" viewBox="0 0 32 32" style="enable-background:new 0 0 32 32;" xml:space="preserve"><path d="M21.6,6.6v9.5c0,0.3,0.3,0.6,0.6,0.6l2.8,0l-6.3,8.2c-0.4,0.5-1.1,0.2-1.1-0.4v-18c0-0.3,0.3-0.6,0.6-0.6h2.7C21.3,5.9,21.6,6.2,21.6,6.6z M25,16.7L25,16.7L25,16.7L25,16.7z M14.5,7.2v18.4c0,0.3-0.2,0.5-0.5,0.5H11c-0.3,0-0.5-0.2-0.5-0.5v-9.8c0-0.3-0.2-0.5-0.5-0.5l-2.9,0.1l6.5-8.4C13.8,6.5,14.5,6.7,14.5,7.2z"/></svg>
