<?xml version="1.0" standalone="no"?><!DOCTYPE svg PUBLIC "-//W3C//DTD SVG 1.1//EN" "http://www.w3.org/Graphics/SVG/1.1/DTD/svg11.dtd"><svg t="1669628735781" class="icon" viewBox="0 0 1024 1024" version="1.1" xmlns="http://www.w3.org/2000/svg" p-id="52342" xmlns:xlink="http://www.w3.org/1999/xlink" width="32" height="32"><path d="M768 149.333333c0-23.466667-19.2-42.666667-42.666667-42.666666H298.666667c-23.466667 0-42.666667 19.2-42.666667 42.666666v42.666667h512V149.333333zM789.333333 384l21.333334-85.333333c0-23.466667-19.2-42.666667-42.666667-42.666667H256c-23.466667 0-42.666667 19.2-42.666667 42.666667l21.333334 85.333333h554.666666z" p-id="52343"></path><path d="M870.4 341.333333h-8.533333l-8.533334 53.333334-10.666666 53.333333h-661.333334L170.666667 394.666667 162.133333 341.333333h-8.533333c-25.6 0-44.8 21.333333-42.666667 46.933334l55.466667 490.666666c2.133333 21.333333 21.333333 38.4 42.666667 38.4h605.866666c21.333333 0 40.533333-17.066667 42.666667-38.4l55.466667-490.666666c2.133333-25.6-17.066667-46.933333-42.666667-46.933334zM661.333333 682.666667c0 23.466667-19.2 42.666667-42.666666 42.666666H405.333333c-23.466667 0-42.666667-19.2-42.666666-42.666666v-96c0-17.066667 14.933333-32 32-32s32 14.933333 32 32V661.333333h170.666666v-74.666666c0-17.066667 14.933333-32 32-32s32 14.933333 32 32V682.666667z" p-id="52344"></path></svg>