<?xml version="1.0" standalone="no"?><!DOCTYPE svg PUBLIC "-//W3C//DTD SVG 1.1//EN" "http://www.w3.org/Graphics/SVG/1.1/DTD/svg11.dtd"><svg t="1669629684504" class="icon" viewBox="0 0 1024 1024" version="1.1" xmlns="http://www.w3.org/2000/svg" p-id="63370" xmlns:xlink="http://www.w3.org/1999/xlink" width="32" height="32"><path d="M984.57088 257.41312C962.74944 219.77088 975.872 171.45344 1013.76 149.504l-40.77056-70.59456c-11.648 6.84544-25.22112 10.68544-39.61856 10.68544-43.58144 0-78.83776-35.52256-78.83776-79.36l-81.41312 0c0.07168 13.50656-3.26144 27.264-10.56256 39.808-7.24992 12.53888-17.4848 22.25664-29.27104 28.92288l-78.14144 0c-0.2048-0.11264-0.41472-0.19968-0.61952-0.31744l-0.18432 0.31744L104.832 78.96576c-35.64544 0-64.83456 29.184-64.83456 64.83456L39.99744 958.208c0 35.64544 29.184 64.76288 64.83456 64.76288L839.168 1022.97088c35.64544 0 64.82944-29.12256 64.82944-64.76288 0 0 0-364.37504 0-606.336 21.64736-8.54528 46.85824-7.56224 68.66944 4.92544l40.77056-70.58944C1001.78944 279.61344 991.68256 269.89056 984.57088 257.41312zM233.7536 314.29632l243.84512 0c23.04512 0 41.7536 23.32672 41.7536 52.0704s-18.70336 52.06528-41.7536 52.06528L233.7536 418.432c-23.04512 0-41.7536-23.32672-41.7536-52.06528S210.70848 314.29632 233.7536 314.29632zM734.80704 837.07392 233.7536 837.07392c-23.04512 0-41.7536-23.24992-41.7536-52.0704 0-28.73856 18.70336-52.0704 41.7536-52.0704l501.04832 0c23.05024 0 41.7536 23.33184 41.7536 52.0704C776.56064 813.824 757.85728 837.07392 734.80704 837.07392zM734.80704 627.712 233.7536 627.712c-23.04512 0-41.7536-23.23968-41.7536-52.0704 0-28.65664 18.70336-51.97824 41.7536-51.97824l0-0.08704 501.04832 0c23.05024 0 41.7536 23.32672 41.7536 52.06528C776.56064 604.47232 757.85728 627.712 734.80704 627.712zM813.75744 301.63456c-46.40256 0-83.968-37.57056-83.968-83.968 0-46.33088 37.57056-83.96288 83.968-83.96288 46.40256 0 83.97312 37.56544 83.97312 83.96288C897.73056 264.00256 860.16 301.63456 813.75744 301.63456z" p-id="63371"></path></svg>