<?xml version="1.0" standalone="no"?><!DOCTYPE svg PUBLIC "-//W3C//DTD SVG 1.1//EN" "http://www.w3.org/Graphics/SVG/1.1/DTD/svg11.dtd"><svg t="1669627449956" class="icon" viewBox="0 0 1024 1024" version="1.1" xmlns="http://www.w3.org/2000/svg" p-id="23458" xmlns:xlink="http://www.w3.org/1999/xlink" width="32" height="32"><path d="M923.136 682.666667c-19.342222 0-39.537778 18.204444-39.537778 40.618666v154.225778H149.504v-154.168889c0-22.528-22.186667-40.675556-41.528889-40.675555-19.342222 0-48.355556 18.204444-48.355555 40.618666v203.207111c0 22.471111 15.644444 40.618667 34.986666 40.618667h837.518222c19.342222 0 34.986667-18.204444 34.986667-40.618667v-203.207111c0-22.471111-24.576-40.618667-43.975111-40.618666zM475.704889 86.016a27.136 27.136 0 0 0-6.200889-14.222222C458.410667 58.993778 447.146667 56.888889 435.541333 56.888889c-11.377778 0-25.486222 1.877333-36.807111 14.848L122.538667 364.885333c-13.312 14.165333-9.898667 41.528889 0 51.427556 12.629333 12.686222 49.322667 12.686222 56.035555 5.688889l211.854222-224.824889v395.946667c0 20.024889 24.746667 33.450667 43.576889 33.450666 18.773333 0 41.699556-13.425778 41.699556-33.450666v-395.946667c0.227556-69.916444 0.227556-106.951111 0-111.160889z" fill="#000000" p-id="23459"></path><path d="M569.059556 768.113778c0.170667 4.209778 2.275556 8.931556 6.200888 14.222222 11.093333 12.8 22.357333 14.904889 34.019556 14.904889 11.320889 0 25.429333-1.877333 36.750222-14.904889L922.168889 489.244444c13.368889-14.108444 9.898667-41.472 0-51.370666-12.572444-12.686222-49.322667-12.686222-55.978667-5.688889l-211.854222 224.824889v-395.946667c0-20.024889-24.803556-33.450667-43.633778-33.450667-18.773333 0-41.699556 13.425778-41.699555 33.450667v395.946667c-0.227556 69.916444-0.227556 106.951111 0 111.160889z" fill="#000000" p-id="23460"></path></svg>